<?xml version="1.0" encoding="UTF-8" standalone="no"?>
<svg width="100" height="100" xmlns="http://www.w3.org/2000/svg">
    <g>
        <rect fill="#4bc076" id="canvas_background" height="102" width="102" y="-1" x="-1" />
    </g>
    <g>
        <path id="svg_1" d="m74,27l-48,0c-3.3,0 -6,2.7 -6,6l0,34c0,3.3 2.7,6 6,6l48,0c3.3,0 6,-2.7 6,-6l0,-34c0,-3.3 -2.7,-6 -6,-6zm-5,27c0,0.9 -1,1.3 -1.7,0.7l-4.6,-4.6l-10.6,9.1c-1.2,1.2 -3.1,1.2 -4.2,0l-6.4,-7.3l-11.4,10c-0.4,0.4 -1,0.4 -1.4,0l-0.5,-0.5c-0.4,-0.4 -0.4,-1 0,-1.4l11.2,-15.3c1.2,-1.2 3.1,-1.2 4.2,0l6.4,6.4l6.5,-7.5l-4.2,-3.8c-0.6,-0.6 -0.2,-1.8 0.7,-1.8l14,0c1.1,0 1.9,1 1.9,2.1l0,13.9l0.1,0z" fill="#fff" />
    </g>
</svg>